<?xml version="1.0" encoding="UTF-8"?>
<svg width="12px" height="20px" viewBox="0 0 12 20" version="1.1" xmlns="http://www.w3.org/2000/svg" xmlns:xlink="http://www.w3.org/1999/xlink">
    <!-- Generator: sketchtool 52.2 (67145) - http://www.bohemiancoding.com/sketch -->
    <title>69613CD2-A15B-40AA-8AB3-12CFAA7F7E13</title>
    <desc>Created with sketchtool.</desc>
    <g id="Pages" stroke="none" stroke-width="1" fill="none" fill-rule="evenodd">
        <g id="Price-list---1" transform="translate(-338.000000, -644.000000)" fill="#FFFFFF" fill-rule="nonzero">
            <g id="Book-a-session" transform="translate(120.000000, 622.000000)">
                <path d="M223,38.5857864 L223,23 C223,22.4477153 223.447715,22 224,22 C224.552285,22 225,22.4477153 225,23 L225,38.5857864 L228.292893,35.2928932 C228.683418,34.9023689 229.316582,34.9023689 229.707107,35.2928932 C230.097631,35.6834175 230.097631,36.3165825 229.707107,36.7071068 L224.707107,41.7071068 C224.316582,42.0976311 223.683418,42.0976311 223.292893,41.7071068 L218.292893,36.7071068 C217.902369,36.3165825 217.902369,35.6834175 218.292893,35.2928932 C218.683418,34.9023689 219.316582,34.9023689 219.707107,35.2928932 L223,38.5857864 Z" id="Combined-Shape"></path>
            </g>
        </g>
    </g>
</svg>