<?xml version="1.0" encoding="UTF-8"?>
<svg width="146px" height="29px" viewBox="0 0 146 29" version="1.1" xmlns="http://www.w3.org/2000/svg" xmlns:xlink="http://www.w3.org/1999/xlink">
    <!-- Generator: Sketch 52.2 (67145) - http://www.bohemiancoding.com/sketch -->
    <title>Logo-white</title>
    <desc>Created with Sketch.</desc>
    <g id="Pages" stroke="none" stroke-width="1" fill="none" fill-rule="evenodd">
        <g id="Efficiency" transform="translate(-121.000000, -52.000000)">
            <g id="Logo-white" transform="translate(120.000000, 50.000000)">
                <path d="M11.859375,30 L1.875,30 L1.875,7.453125 L11.6875,7.453125 C15.921875,7.453125 18.578125,9.625 18.578125,13.078125 C18.578125,15.546875 16.734375,17.609375 14.34375,17.96875 L14.34375,18.09375 C17.40625,18.328125 19.65625,20.5625 19.65625,23.546875 C19.65625,27.515625 16.671875,30 11.859375,30 Z M6.59375,10.96875 L6.59375,16.828125 L9.984375,16.828125 C12.5,16.828125 13.9375,15.71875 13.9375,13.8125 C13.9375,12 12.671875,10.96875 10.46875,10.96875 L6.59375,10.96875 Z M6.59375,26.484375 L10.65625,26.484375 C13.375,26.484375 14.84375,25.328125 14.84375,23.171875 C14.84375,21.0625 13.328125,19.9375 10.546875,19.9375 L6.59375,19.9375 L6.59375,26.484375 Z M32.515625,7.0625 C39.1875,7.0625 43.390625,11.546875 43.390625,18.734375 C43.390625,25.90625 39.1875,30.390625 32.515625,30.390625 C25.828125,30.390625 21.640625,25.90625 21.640625,18.734375 C21.640625,11.546875 25.828125,7.0625 32.515625,7.0625 Z M32.515625,11 C28.828125,11 26.453125,14 26.453125,18.734375 C26.453125,23.453125 28.8125,26.4375 32.515625,26.4375 C36.203125,26.4375 38.5625,23.453125 38.5625,18.734375 C38.5625,14 36.203125,11 32.515625,11 Z M46.421875,7.453125 L55.03125,7.453125 C61.796875,7.453125 65.78125,11.484375 65.78125,18.640625 C65.78125,25.796875 61.796875,30 55.03125,30 L46.421875,30 L46.421875,7.453125 Z M51.140625,11.34375 L51.140625,26.09375 L54.46875,26.09375 C58.6875,26.09375 60.96875,23.53125 60.96875,18.65625 C60.96875,13.9375 58.625,11.34375 54.46875,11.34375 L51.140625,11.34375 Z M78.625,30 L73.90625,30 L73.90625,21.578125 L66.0625,7.453125 L71.203125,7.453125 L76.25,17.078125 L76.359375,17.078125 L81.421875,7.453125 L86.484375,7.453125 L78.625,21.578125 L78.625,30 Z M98.890625,30 L94.171875,30 L94.171875,11.34375 L87.65625,11.34375 L87.65625,7.453125 L105.421875,7.453125 L105.421875,11.34375 L98.890625,11.34375 L98.890625,30 Z M122.96875,26.09375 L122.96875,30 L108.03125,30 L108.03125,7.453125 L122.96875,7.453125 L122.96875,11.34375 L112.75,11.34375 L112.75,16.78125 L122.390625,16.78125 L122.390625,20.40625 L112.75,20.40625 L112.75,26.09375 L122.96875,26.09375 Z M136.34375,30.390625 C129.78125,30.390625 125.671875,26 125.671875,18.71875 C125.671875,11.453125 129.8125,7.0625 136.34375,7.0625 C141.765625,7.0625 145.890625,10.5 146.25,15.546875 L141.65625,15.546875 C141.21875,12.78125 139.09375,10.96875 136.34375,10.96875 C132.78125,10.96875 130.484375,13.953125 130.484375,18.703125 C130.484375,23.515625 132.75,26.484375 136.359375,26.484375 C139.15625,26.484375 141.171875,24.84375 141.671875,22.171875 L146.265625,22.171875 C145.734375,27.203125 141.875,30.390625 136.34375,30.390625 Z" id="BODYTEC" fill="#FFFFFF"></path>
                <path d="M3.2027027,3 L18.1486486,3" id="Line" stroke="#FFFFFF" stroke-width="2" stroke-linecap="round"></path>
            </g>
        </g>
    </g>
</svg>